<?xml version="1.0" encoding="UTF-8" standalone="no"?>
<!-- Created with Inkscape (http://www.inkscape.org/) -->

<svg
   version="1.1"
   id="svg2"
   width="308.56"
   height="32.346668"
   viewBox="0 0 308.56 32.346668"
   sodipodi:docname="Credit_Card_Icons.eps"
   xmlns:inkscape="http://www.inkscape.org/namespaces/inkscape"
   xmlns:sodipodi="http://sodipodi.sourceforge.net/DTD/sodipodi-0.dtd"
   xmlns="http://www.w3.org/2000/svg"
   xmlns:svg="http://www.w3.org/2000/svg">
  <defs
     id="defs6">
    <clipPath
       clipPathUnits="userSpaceOnUse"
       id="clipPath20">
      <path
         d="M 2311.67,3.80469 H 1942.5 V 238.805 h 369.17 z"
         id="path18" />
    </clipPath>
    <linearGradient
       x1="0"
       y1="0"
       x2="1"
       y2="0"
       gradientUnits="userSpaceOnUse"
       gradientTransform="matrix(-1.03e-5,-235,-235,1.03e-5,2127.08,238.803)"
       spreadMethod="pad"
       id="linearGradient26">
      <stop
         style="stop-opacity:1;stop-color:#ffffff"
         offset="0"
         id="stop22" />
      <stop
         style="stop-opacity:1;stop-color:#fdeaba"
         offset="1"
         id="stop24" />
    </linearGradient>
    <clipPath
       clipPathUnits="userSpaceOnUse"
       id="clipPath100">
      <path
         d="M 1077.79,242.605 H 836.074 V 0 h 241.716 v 80.0664 c 0.98,1.3867 1.44,3.1602 1.44,5.3281 0,2.4844 -0.46,4.0352 -1.44,5.3243"
         id="path98" />
    </clipPath>
    <radialGradient
       fx="0"
       fy="0"
       cx="0"
       cy="0"
       r="1"
       gradientUnits="userSpaceOnUse"
       gradientTransform="matrix(226.83,0,0,226.83,878.726,200.214)"
       spreadMethod="pad"
       id="radialGradient118">
      <stop
         style="stop-opacity:1;stop-color:#a7daf5"
         offset="0"
         id="stop102" />
      <stop
         style="stop-opacity:1;stop-color:#a1d8f4"
         offset="0.0711"
         id="stop104" />
      <stop
         style="stop-opacity:1;stop-color:#95d3f3"
         offset="0.1575"
         id="stop106" />
      <stop
         style="stop-opacity:1;stop-color:#80cdf2"
         offset="0.2516"
         id="stop108" />
      <stop
         style="stop-opacity:1;stop-color:#69c3ee"
         offset="0.3514"
         id="stop110" />
      <stop
         style="stop-opacity:1;stop-color:#50b0e7"
         offset="0.4546"
         id="stop112" />
      <stop
         style="stop-opacity:1;stop-color:#4ca8e2"
         offset="0.5"
         id="stop114" />
      <stop
         style="stop-opacity:1;stop-color:#4075c2"
         offset="1"
         id="stop116" />
    </radialGradient>
    <clipPath
       clipPathUnits="userSpaceOnUse"
       id="clipPath136">
      <path
         d="m 1317.19,180.055 c -15.21,0 -27.55,-11.875 -27.55,-26.539 0,-15.586 11.81,-27.239 27.55,-27.239 15.34,0 27.47,11.805 27.47,26.93 0,15.039 -12.05,26.848 -27.47,26.848 z"
         id="path134" />
    </clipPath>
    <radialGradient
       fx="0"
       fy="0"
       cx="0"
       cy="0"
       r="1"
       gradientUnits="userSpaceOnUse"
       gradientTransform="matrix(27.1991,0,0,-27.1991,1317.15,153.164)"
       spreadMethod="pad"
       id="radialGradient144">
      <stop
         style="stop-opacity:1;stop-color:#feefe1"
         offset="0"
         id="stop138" />
      <stop
         style="stop-opacity:1;stop-color:#feefe1"
         offset="0.005618"
         id="stop140" />
      <stop
         style="stop-opacity:1;stop-color:#f47216"
         offset="1"
         id="stop142" />
    </radialGradient>
  </defs>
  <sodipodi:namedview
     id="namedview4"
     pagecolor="#ffffff"
     bordercolor="#000000"
     borderopacity="0.25"
     inkscape:showpageshadow="2"
     inkscape:pageopacity="0.0"
     inkscape:pagecheckerboard="0"
     inkscape:deskcolor="#d1d1d1" />
  <g
     id="g8"
     inkscape:groupmode="layer"
     inkscape:label="ink_ext_XXXXXX"
     transform="matrix(1.3333333,0,0,-1.3333333,0,32.346667)">
    <g
       id="g10"
       transform="scale(0.1)">
      <path
         d="M 369.172,3.80469 H 0 V 238.805 H 369.172 V 3.80469"
         style="fill:#252659;fill-opacity:1;fill-rule:nonzero;stroke:none"
         id="path12" />
      <g
         id="g14">
        <g
           id="g16"
           clip-path="url(#clipPath20)">
          <path
             d="M 2311.67,3.80469 H 1942.5 V 238.805 h 369.17 V 3.80469"
             style="fill:url(#linearGradient26);fill-opacity:1;fill-rule:nonzero;stroke:none"
             id="path28" />
        </g>
      </g>
      <path
         d="M 2311.67,3.80469 H 1942.5 V 238.805 h 369.17 z"
         style="fill:none;stroke:#f8a748;stroke-width:5;stroke-linecap:butt;stroke-linejoin:miter;stroke-miterlimit:4;stroke-dasharray:none;stroke-opacity:1"
         id="path30" />
      <path
         d="m 218.613,121.305 c 0,-57.1683 -46.347,-103.4964 -103.508,-103.4964 -57.1558,0 -103.4956,46.3281 -103.4956,103.4964 0,57.156 46.3398,103.496 103.4956,103.496 57.161,0 103.508,-46.34 103.508,-103.496"
         style="fill:#ed192d;fill-opacity:1;fill-rule:nonzero;stroke:none"
         id="path32" />
      <path
         d="m 254.063,224.801 c -26.75,0 -51.125,-10.149 -69.485,-26.793 -3.738,-3.391 -7.223,-7.055 -10.437,-10.953 h 20.898 c 2.859,-3.465 5.481,-7.137 7.891,-10.961 h -36.7 c -2.187,-3.528 -4.191,-7.18 -5.964,-10.957 h 48.629 c 1.664,-3.551 3.117,-7.211 4.375,-10.957 h -57.372 c -1.21,-3.575 -2.199,-7.227 -3.015,-10.969 h 63.387 c 1.535,-7.063 2.343,-14.387 2.343,-21.906 0,-11.496 -1.875,-22.555 -5.343,-32.887 h -57.372 c 1.25,-3.75 2.707,-7.4141 4.368,-10.9532 h 48.629 c -1.786,-3.789 -3.758,-7.4453 -5.973,-10.9726 H 166.23 c 2.403,-3.8164 5.04,-7.4805 7.911,-10.9453 h 20.898 c -3.223,-3.8985 -6.711,-7.5703 -10.461,-10.9688 18.36,-16.6328 42.735,-26.7695 69.485,-26.7695 57.16,0 103.496,46.3281 103.496,103.4964 0,57.152 -46.336,103.496 -103.496,103.496"
         style="fill:#f9a91f;fill-opacity:1;fill-rule:nonzero;stroke:none"
         id="path34" />
      <path
         d="m 346.66,63.8086 h 0.383 c 0.137,0 0.293,-0.0117 0.418,0.0586 0.105,0.0742 0.168,0.1992 0.168,0.3359 0,0.1133 -0.07,0.2461 -0.168,0.3008 -0.117,0.0703 -0.313,0.0547 -0.441,0.0547 h -0.36 z m 0,-1.6719 h -0.691 v 2.9297 h 1.25 c 0.242,0 0.523,0 0.75,-0.1289 0.222,-0.1719 0.371,-0.457 0.371,-0.7344 0,-0.3359 -0.195,-0.6484 -0.52,-0.7656 l 0.559,-1.3008 h -0.774 l -0.457,1.1524 h -0.488 z m 0.449,-1.0742 c 1.414,0 2.547,1.1445 2.547,2.5508 0,1.4062 -1.133,2.5351 -2.547,2.5351 -1.394,0 -2.539,-1.1289 -2.539,-2.5351 0,-1.4063 1.145,-2.5508 2.539,-2.5508 z m -3.347,2.5508 c 0,1.8359 1.504,3.3398 3.347,3.3398 1.844,0 3.34,-1.5039 3.34,-3.3398 0,-1.8516 -1.496,-3.3555 -3.34,-3.3555 -1.843,0 -3.347,1.5039 -3.347,3.3555"
         style="fill:#f9a91f;fill-opacity:1;fill-rule:nonzero;stroke:none"
         id="path36" />
      <path
         d="m 99.1094,90.9414 c -1.5039,0 -9.3164,0 -9.3164,0 l 0.2187,4.4336 c -2.8437,-3.5 -6.6211,-5.1641 -11.7812,-5.1641 -6.0821,0 -10.2617,4.7539 -10.2617,11.6601 0,10.399 7.2656,16.457 19.7265,16.457 1.2774,0 2.9102,-0.121 4.5899,-0.332 0.3515,1.406 0.4218,2.02 0.4218,2.77 0,2.828 -1.9453,3.89 -7.1992,3.89 -5.4883,0.055 -10.0312,-1.312 -11.8945,-1.922 0.125,0.707 1.5703,9.594 1.5703,9.594 5.5898,1.645 9.2812,2.266 13.4297,2.266 9.6601,0 14.7777,-4.324 14.7537,-12.52 0.024,-2.195 -0.34,-4.902 -0.894,-8.461 -0.989,-6.175 -3.0863,-19.4372 -3.3636,-22.6716 z m -8.1719,19.0276 c -1.1914,0.133 -1.6992,0.172 -2.5117,0.172 -6.3672,0 -9.5977,-2.18 -9.5977,-6.5 0,-2.657 1.5821,-4.3402 4.0313,-4.3402 4.582,0 7.8828,4.3472 8.0781,10.6682"
         style="fill:#16326c;fill-opacity:1;fill-rule:nonzero;stroke:none"
         id="path38" />
      <path
         d="M 63.2734,90.9414 H 52.0313 L 58.4688,131.297 44.1016,90.9414 H 36.457 L 35.4961,131.074 28.7305,90.9414 H 18.2148 l 8.7774,52.4996 h 16.1641 l 0.9765,-29.378 9.8516,29.378 H 71.9531 L 63.2734,90.9414"
         style="fill:#16326c;fill-opacity:1;fill-rule:nonzero;stroke:none"
         id="path40" />
      <path
         d="m 276.133,90.9414 c -1.516,0 -9.324,0 -9.324,0 l 0.211,4.4336 c -2.84,-3.5 -6.622,-5.1641 -11.766,-5.1641 -6.106,0 -10.274,4.7539 -10.274,11.6601 0,10.399 7.278,16.457 19.727,16.457 1.277,0 2.91,-0.121 4.578,-0.332 0.356,1.406 0.442,2.02 0.442,2.77 0,2.828 -1.954,3.89 -7.2,3.89 -5.496,0.055 -10.039,-1.312 -11.902,-1.922 0.137,0.707 1.57,9.594 1.57,9.594 5.598,1.645 9.289,2.266 13.43,2.266 9.668,0 14.773,-4.324 14.758,-12.52 0.027,-2.195 -0.332,-4.902 -0.918,-8.461 -0.957,-6.175 -3.07,-19.4372 -3.332,-22.6716 z m -8.184,19.0276 c -1.191,0.133 -1.699,0.172 -2.511,0.172 -6.368,0 -9.586,-2.18 -9.586,-6.5 0,-2.657 1.57,-4.3402 4.019,-4.3402 4.582,0 7.883,4.3472 8.078,10.6682"
         style="fill:#16326c;fill-opacity:1;fill-rule:nonzero;stroke:none"
         id="path42" />
      <path
         d="m 149.043,91.5977 c -3.074,-0.9688 -5.469,-1.3868 -8.066,-1.3868 -5.743,0 -8.887,3.3008 -8.887,9.375 -0.078,1.8941 0.832,6.8551 1.543,11.3791 0.644,3.992 4.883,29.133 4.883,29.133 h 11.164 l -1.313,-6.45 h 6.75 l -1.523,-10.265 h -6.77 c -1.297,-8.121 -3.14,-18.242 -3.164,-19.586 0,-2.195 1.176,-3.156 3.84,-3.156 1.277,0 2.273,0.129 3.035,0.402 l -1.492,-9.4453"
         style="fill:#16326c;fill-opacity:1;fill-rule:nonzero;stroke:none"
         id="path44" />
      <path
         d="m 177.012,117.254 c 0.066,0.891 1.179,7.625 -5.196,7.625 -3.562,0 -6.101,-2.715 -7.128,-7.625 z m 6.277,-25.3165 c -3.836,-1.1758 -7.527,-1.7461 -11.453,-1.7266 -12.512,0.0118 -19.023,6.5352 -19.023,19.0471 0,14.59 8.292,25.336 19.542,25.336 9.215,0 15.094,-6.008 15.094,-15.453 0,-3.129 -0.41,-6.188 -1.386,-10.5 h -22.235 c -0.754,-6.184 3.211,-8.7699 9.707,-8.7699 3.992,0 7.61,0.8279 11.61,2.6879 l -1.856,-10.6215"
         style="fill:#16326c;fill-opacity:1;fill-rule:nonzero;stroke:none"
         id="path46" />
      <path
         d="m 105.852,120.141 c 0,-5.395 2.617,-9.121 8.55,-11.914 4.551,-2.141 5.246,-2.782 5.246,-4.711 0,-2.668 -1.992,-3.8676 -6.445,-3.8676 -3.348,0 -6.465,0.5236 -10.066,1.6876 0,0 -1.465,-9.418 -1.543,-9.8672 2.554,-0.5469 4.832,-1.0743 11.695,-1.2579 11.856,0 17.324,4.5118 17.324,14.2621 0,5.867 -2.285,9.316 -7.91,11.898 -4.715,2.168 -5.262,2.652 -5.262,4.641 0,2.312 1.875,3.496 5.497,3.496 2.218,0 5.226,-0.242 8.085,-0.653 l 1.582,9.911 c -2.898,0.461 -7.3,0.828 -9.871,0.828 -12.589,0 -16.921,-6.563 -16.882,-14.453"
         style="fill:#16326c;fill-opacity:1;fill-rule:nonzero;stroke:none"
         id="path48" />
      <path
         d="m 237.949,133.465 c 3.114,0 6.028,-0.809 10.047,-2.836 l 1.817,11.402 c -1.637,0.649 -7.43,4.438 -12.34,4.438 -7.524,0 -13.887,-3.735 -18.352,-9.891 -6.523,2.16 -9.211,-2.199 -12.5,-6.551 l -2.91,-0.683 c 0.215,1.437 0.422,2.851 0.359,4.304 h -10.332 c -1.402,-13.222 -3.894,-26.609 -5.855,-39.8355 l -0.512,-2.8711 h 11.242 c 1.883,12.1996 2.903,19.9966 3.535,25.2926 l 4.231,2.336 c 0.625,2.356 2.613,3.153 6.57,3.055 -0.508,-2.781 -0.793,-5.719 -0.793,-8.75 0,-13.9727 7.551,-22.6641 19.641,-22.6641 3.113,0 5.793,0.4102 9.933,1.5313 l 1.969,11.9648 c -3.726,-1.832 -6.773,-2.695 -9.551,-2.695 -6.531,0 -10.464,4.836 -10.464,12.797 0,11.558 5.855,19.656 14.265,19.656"
         style="fill:#16326c;fill-opacity:1;fill-rule:nonzero;stroke:none"
         id="path50" />
      <path
         d="m 319.016,100.809 c -3.828,0 -5.762,2.832 -5.762,8.414 0,8.394 3.621,14.347 8.719,14.347 3.855,0 5.957,-2.941 5.957,-8.371 0,-8.465 -3.684,-14.39 -8.914,-14.39 z m 14.05,42.632 -2.5,-15.16 c -3.054,4.032 -6.355,6.961 -10.722,6.961 -5.664,0 -10.821,-4.297 -14.199,-10.625 -4.715,0.973 -9.582,2.637 -9.582,2.637 v -0.039 c 0.375,3.531 0.539,5.691 0.5,6.433 H 286.23 c -1.386,-13.222 -3.906,-26.609 -5.847,-39.8355 l -0.512,-2.8711 h 11.234 c 1.524,9.8596 2.696,18.0386 3.543,24.5426 3.829,3.465 5.762,6.489 9.649,6.289 -1.738,-4.156 -2.727,-8.941 -2.727,-13.847 0,-10.676 5.395,-17.7151 13.559,-17.7151 4.117,0 7.273,1.4141 10.359,4.711 l -0.527,-3.9766 h 10.625 l 8.562,52.4957 h -11.082"
         style="fill:#16326c;fill-opacity:1;fill-rule:nonzero;stroke:none"
         id="path52" />
      <path
         d="m 66.5039,94.0664 h -11.25 l 6.457,40.3516 -14.375,-40.3516 H 39.668 L 38.7188,134.18 31.9648,94.0664 H 21.4453 l 8.7891,52.4966 h 16.164 l 0.4454,-32.5 10.8906,32.5 H 75.1953 L 66.5039,94.0664"
         style="fill:#ffffff;fill-opacity:1;fill-rule:nonzero;stroke:none"
         id="path54" />
      <path
         d="m 102.344,94.0664 c -1.492,0 -9.3088,0 -9.3088,0 l 0.2187,4.4141 c -2.8437,-3.4922 -6.6328,-5.1563 -11.7812,-5.1563 -6.0899,0 -10.2618,4.75 -10.2618,11.6598 0,10.395 7.2579,16.461 19.7149,16.461 1.2812,0 2.914,-0.121 4.582,-0.332 0.3399,1.414 0.4492,2.008 0.4492,2.774 0,2.828 -1.9648,3.875 -7.1953,3.875 -5.5078,0.066 -10.0429,-1.309 -11.9179,-1.914 0.1289,0.711 1.5625,9.601 1.5625,9.601 5.5976,1.641 9.289,2.254 13.4492,2.254 9.6485,0 14.7535,-4.336 14.7535,-12.512 0.012,-2.199 -0.347,-4.91 -0.918,-8.468 -0.964,-6.172 -3.054,-19.4378 -3.347,-22.6566 z m -8.1643,19.0156 c -1.1836,0.129 -1.6992,0.18 -2.5195,0.18 -6.3672,0 -9.5782,-2.192 -9.5782,-6.504 0,-2.653 1.5625,-4.352 4.0196,-4.352 4.582,0 7.8711,4.356 8.0781,10.676"
         style="fill:#ffffff;fill-opacity:1;fill-rule:nonzero;stroke:none"
         id="path56" />
      <path
         d="m 253.047,145.141 -1.836,-11.387 c -4.016,2.012 -6.926,2.824 -10.027,2.824 -8.403,0 -14.289,-8.098 -14.289,-19.664 0,-7.969 3.964,-12.789 10.5,-12.789 2.761,0 5.808,0.859 9.539,2.695 l -1.973,-11.9567 c -4.141,-1.1289 -6.824,-1.5391 -9.934,-1.5391 -12.097,0 -19.636,8.6918 -19.636,22.6558 0,18.774 10.429,31.895 25.312,31.895 4.902,0 10.692,-2.086 12.344,-2.734"
         style="fill:#ffffff;fill-opacity:1;fill-rule:nonzero;stroke:none"
         id="path58" />
      <path
         d="m 279.355,94.0664 c -1.484,0 -9.304,0 -9.304,0 l 0.215,4.4141 c -2.844,-3.4922 -6.645,-5.1563 -11.782,-5.1563 -6.089,0 -10.261,4.75 -10.261,11.6598 0,10.395 7.257,16.461 19.726,16.461 1.27,0 2.903,-0.121 4.571,-0.332 0.339,1.414 0.441,2.008 0.441,2.774 0,2.828 -1.953,3.875 -7.199,3.875 -5.496,0.066 -10.039,-1.309 -11.907,-1.914 0.122,0.711 1.567,9.601 1.567,9.601 5.601,1.641 9.285,2.254 13.445,2.254 9.649,0 14.766,-4.336 14.754,-12.512 0.024,-2.199 -0.359,-4.91 -0.918,-8.468 -0.965,-6.172 -3.055,-19.4378 -3.348,-22.6566 z m -8.171,19.0156 c -1.184,0.129 -1.692,0.18 -2.512,0.18 -6.367,0 -9.59,-2.192 -9.59,-6.504 0,-2.653 1.57,-4.352 4.031,-4.352 4.582,0 7.871,4.356 8.071,10.676"
         style="fill:#ffffff;fill-opacity:1;fill-rule:nonzero;stroke:none"
         id="path60" />
      <path
         d="m 152.273,94.7109 c -3.062,-0.9648 -5.464,-1.3867 -8.062,-1.3867 -5.742,0 -8.879,3.293 -8.879,9.3788 -0.078,1.883 0.82,6.852 1.531,11.375 0.649,3.996 4.875,29.133 4.875,29.133 h 11.172 l -1.308,-6.457 h 5.742 l -1.531,-10.262 h -5.754 c -1.297,-8.125 -3.145,-18.23 -3.184,-19.57 0,-2.211 1.184,-3.168 3.879,-3.168 1.277,0 2.254,0.137 3.016,0.402 l -1.497,-9.4451"
         style="fill:#ffffff;fill-opacity:1;fill-rule:nonzero;stroke:none"
         id="path62" />
      <path
         d="m 180.254,120.367 c 0.051,0.887 1.184,7.621 -5.195,7.621 -3.567,0 -6.106,-2.718 -7.149,-7.621 z m 6.269,-25.3201 c -3.835,-1.168 -7.546,-1.7305 -11.457,-1.7227 -12.507,0.0117 -19.019,6.5391 -19.019,19.0388 0,14.606 8.277,25.34 19.551,25.34 9.199,0 15.078,-6.008 15.078,-15.449 0,-3.129 -0.403,-6.184 -1.367,-10.5 H 167.07 c -0.761,-6.199 3.196,-8.777 9.7,-8.777 4,0 7.605,0.82 11.628,2.695 l -1.875,-10.6251"
         style="fill:#ffffff;fill-opacity:1;fill-rule:nonzero;stroke:none"
         id="path64" />
      <path
         d="m 109.082,123.258 c 0,-5.41 2.606,-9.129 8.563,-11.93 4.543,-2.129 5.253,-2.765 5.253,-4.711 0,-2.652 -2.007,-3.847 -6.453,-3.847 -3.347,0 -6.472,0.515 -10.078,1.679 0,0 -1.472,-9.4217 -1.531,-9.8631 2.547,-0.5586 4.82,-1.0664 11.687,-1.2617 11.856,0 17.332,4.5117 17.332,14.2698 0,5.867 -2.292,9.308 -7.917,11.898 -4.715,2.164 -5.254,2.637 -5.254,4.633 0,2.305 1.867,3.492 5.5,3.492 2.207,0 5.203,-0.238 8.074,-0.64 l 1.601,9.894 c -2.91,0.465 -7.336,0.832 -9.89,0.832 -12.571,0 -16.938,-6.562 -16.887,-14.445"
         style="fill:#ffffff;fill-opacity:1;fill-rule:nonzero;stroke:none"
         id="path66" />
      <path
         d="m 322.246,103.914 c 5.234,0 8.906,5.945 8.906,14.402 0,5.418 -2.089,8.364 -5.949,8.364 -5.098,0 -8.719,-5.942 -8.719,-14.34 0,-5.586 1.946,-8.426 5.762,-8.426 z m 16.582,-9.8476 h -10.625 l 0.52,3.9649 c -3.078,-3.2891 -6.243,-4.7071 -10.356,-4.7071 -8.164,0 -13.57,7.0428 -13.57,17.7188 0,14.195 8.379,26.168 18.277,26.168 4.36,0 7.656,-1.777 10.735,-5.824 l 2.5,15.176 h 11.086 l -8.567,-52.4966"
         style="fill:#ffffff;fill-opacity:1;fill-rule:nonzero;stroke:none"
         id="path68" />
      <path
         d="m 289.48,136.754 c -1.406,-13.215 -3.914,-26.602 -5.859,-39.8204 l -0.516,-2.8672 h 11.243 c 4.019,26.1096 4.976,31.2036 11.297,30.5626 0.996,5.34 2.871,10.023 4.257,12.383 -4.707,0.976 -7.343,-1.68 -10.769,-6.735 0.262,2.192 0.762,4.309 0.664,6.477 H 289.48"
         style="fill:#ffffff;fill-opacity:1;fill-rule:nonzero;stroke:none"
         id="path70" />
      <path
         d="m 196.98,136.754 c -1.414,-13.215 -3.914,-26.602 -5.867,-39.8204 l -0.508,-2.8672 h 11.243 c 4.031,26.1096 4.976,31.2036 11.277,30.5626 1.016,5.34 2.891,10.023 4.27,12.383 -4.7,0.976 -7.329,-1.68 -10.774,-6.735 0.281,2.192 0.774,4.309 0.684,6.477 H 196.98"
         style="fill:#ffffff;fill-opacity:1;fill-rule:nonzero;stroke:none"
         id="path72" />
      <path
         d="m 346.648,97.6055 h 0.395 c 0.125,0 0.293,-0.0196 0.406,0.0586 0.117,0.0664 0.18,0.207 0.18,0.3398 0,0.1055 -0.07,0.2383 -0.168,0.2969 -0.117,0.0742 -0.32,0.0469 -0.449,0.0469 h -0.364 z m 0,-1.668 h -0.679 v 2.9336 h 1.25 c 0.242,0 0.508,-0.0039 0.742,-0.1523 0.23,-0.1485 0.367,-0.4336 0.367,-0.7266 0,-0.3281 -0.183,-0.6484 -0.508,-0.7617 l 0.547,-1.293 h -0.769 l -0.45,1.168 h -0.5 z m 0.461,-1.0742 c 1.414,0 2.539,1.1406 2.539,2.543 0,1.4023 -1.125,2.5351 -2.539,2.5351 -1.394,0 -2.546,-1.1328 -2.546,-2.5351 0,-1.4024 1.152,-2.543 2.546,-2.543 z m -3.347,2.543 c 0,1.8515 1.504,3.3477 3.347,3.3477 1.836,0 3.321,-1.4962 3.321,-3.3477 0,-1.8438 -1.485,-3.3399 -3.321,-3.3399 -1.843,0 -3.347,1.4961 -3.347,3.3399"
         style="fill:#ffffff;fill-opacity:1;fill-rule:nonzero;stroke:none"
         id="path74" />
      <path
         d="m 434.473,74.5703 v 0 c 0,0.3125 -0.02,0.293 0,0"
         style="fill:#ffffff;fill-opacity:1;fill-rule:nonzero;stroke:none"
         id="path76" />
      <path
         d="M 792.117,4.48047 H 417.871 V 238.125 H 792.117 V 4.48047"
         style="fill:#1b54a2;fill-opacity:1;fill-rule:nonzero;stroke:none"
         id="path78" />
      <path
         d="M 792.117,4.48047 H 417.871 V 238.125 h 374.246 z"
         style="fill:none;stroke:#1b54a2;stroke-width:5.14425;stroke-linecap:butt;stroke-linejoin:miter;stroke-miterlimit:4;stroke-dasharray:none;stroke-opacity:1"
         id="path80" />
      <path
         d="m 435.293,74.7852 c 0.098,-1.9961 1.555,-16.6133 18.562,-16.6133 105.04,0 232.993,0 338.262,0 l 0.012,179.9531 H 435.32 c -0.027,-39.102 -0.027,-132.082 -0.027,-163.3398 v 0"
         style="fill:#ffffff;fill-opacity:1;fill-rule:nonzero;stroke:none"
         id="path82" />
      <path
         d="m 537.129,200.574 -26.008,-70.136 -2.781,14.25 c -6.289,17.019 -18.527,32.542 -36.785,42.953 L 495.32,97.8164 h 28.118 l 41.816,102.7576 h -28.125"
         style="fill:#1b54a2;fill-opacity:1;fill-rule:nonzero;stroke:none"
         id="path84" />
      <path
         d="m 559.402,97.7773 16.614,102.8867 h 26.582 L 585.969,97.7773 h -26.567"
         style="fill:#1b54a2;fill-opacity:1;fill-rule:nonzero;stroke:none"
         id="path86" />
      <path
         d="m 682.324,198.121 c -5.246,2.09 -13.535,4.34 -23.789,4.34 -26.289,0 -44.765,-13.961 -44.922,-33.93 -0.168,-14.832 13.203,-23.058 23.274,-27.996 10.347,-5.039 13.828,-8.265 13.789,-12.773 -0.102,-6.864 -8.293,-10.004 -15.918,-10.004 -10.617,0 -16.274,1.535 -24.973,5.394 l -3.457,1.618 -3.711,-23.012 c 6.211,-2.9103 17.664,-5.3635 29.617,-5.5197 27.883,0 46.02,13.8207 46.235,35.1677 0.125,11.723 -6.977,20.621 -22.336,27.965 -9.246,4.754 -15,7.914 -14.903,12.746 0.008,4.274 4.817,8.84 15.247,8.84 8.691,0.176 14.918,-1.832 19.871,-3.945 l 2.375,-1.196 3.601,22.305"
         style="fill:#1b54a2;fill-opacity:1;fill-rule:nonzero;stroke:none"
         id="path88" />
      <path
         d="m 717.695,134.258 c 2.215,5.902 10.598,28.75 10.598,28.75 -0.18,-0.278 2.145,5.972 3.523,9.824 l 1.77,-8.898 c 0,0 5.105,-24.539 6.16,-29.676 -4.133,0 -16.863,0 -22.051,0 z m 32.743,66.308 h -20.516 c -6.367,0 -11.121,-1.851 -13.945,-8.535 L 676.543,97.7617 h 27.922 c 0,0 4.558,12.6683 5.574,15.4613 3.066,0 30.137,-0.059 34.004,-0.059 0.828,-3.598 3.262,-15.4023 3.262,-15.4023 h 24.66 L 750.438,200.566"
         style="fill:#1b54a2;fill-opacity:1;fill-rule:nonzero;stroke:none"
         id="path90" />
      <path
         d="M 487.012,200.609 H 444.16 l -0.234,-1.773 c 33.293,-8.5 55.273,-29.453 64.414,-54.168 l -9.297,47.266 c -1.602,6.531 -6.27,8.441 -12.031,8.675"
         style="fill:#f89c0e;fill-opacity:1;fill-rule:nonzero;stroke:none"
         id="path92" />
      <g
         id="g94">
        <g
           id="g96"
           clip-path="url(#clipPath100)">
          <path
             d="M 1077.79,242.605 H 836.074 V 0 h 241.716 v 80.0664 c 0.98,1.3867 1.44,3.1602 1.44,5.3281 0,2.4844 -0.46,4.0352 -1.44,5.3243"
             style="fill:url(#radialGradient118);fill-opacity:1;fill-rule:nonzero;stroke:none"
             id="path120" />
        </g>
      </g>
      <path
         d="m 836.074,119.773 h 11.602 l 2.605,6.317 h 5.871 l 2.61,-6.317 h 22.84 v 4.832 l 2.05,-4.843 h 11.844 l 2.055,4.914 v -4.903 h 56.765 l -0.039,10.368 h 1.106 c 0.762,-0.028 0.996,-0.098 0.996,-1.368 v -9 h 29.344 v 2.415 c 2.382,-1.27 6.062,-2.415 10.91,-2.415 h 12.357 l 2.62,6.317 h 5.86 l 2.6,-6.317 h 23.8 v 6.004 l 3.6,-6.004 h 19.07 v 39.649 h -18.86 v -4.676 l -2.66,4.676 h -19.36 v -4.676 l -2.42,4.676 h -26.177 c -4.375,0 -8.223,-0.613 -11.34,-2.317 v 2.317 h -18.047 v -2.317 c -1.973,1.75 -4.68,2.317 -7.664,2.317 h -65.957 l -4.438,-10.238 -4.551,10.238 h -20.769 v -4.676 l -2.285,4.676 h -17.715 l -8.223,-18.856 v -20.793 z m 224.426,5.586 h -9.63 l -12.88,21.336 v -21.336 h -13.85 l -2.65,6.34 h -14.09 l -2.58,-6.34 h -7.945 c -3.312,0 -7.48,0.731 -9.863,3.141 -2.371,2.414 -3.614,5.684 -3.614,10.852 0,4.218 0.743,8.07 3.653,11.121 2.195,2.265 5.637,3.312 10.312,3.312 h 6.587 v -6.086 h -6.43 c -2.481,0 -3.887,-0.371 -5.247,-1.687 -1.16,-1.199 -1.941,-3.465 -1.941,-6.442 0,-3.047 0.598,-5.246 1.856,-6.675 1.054,-1.129 2.949,-1.465 4.746,-1.465 h 3.046 l 9.58,22.355 h 10.18 l 11.5,-26.887 v 26.887 h 10.35 l 11.95,-19.797 v 19.797 h 6.96 v -28.426 z m -80.434,0 h -6.929 v 28.426 h 6.929 z m -10.878,20.77 c 0,-4.531 -3.028,-6.871 -4.793,-7.578 1.496,-0.563 2.761,-1.563 3.359,-2.395 0.969,-1.41 1.133,-2.672 1.133,-5.211 v -5.586 h -6.856 l -0.019,3.586 c 0,1.707 0.168,4.168 -1.074,5.535 -0.997,1.004 -2.5,1.219 -4.954,1.219 h -7.293 v -10.34 h -6.796 v 28.426 h 15.625 c 3.476,0 6.035,-0.09 8.234,-1.363 2.144,-1.27 3.434,-3.125 3.434,-6.293 z m -32.008,-20.77 h -22.688 v 28.426 h 22.688 v -5.914 h -15.891 v -5.129 h 15.52 v -5.824 h -15.52 v -5.684 h 15.891 z m -27.754,0 h -6.965 l -0.027,22.262 -9.844,-22.262 h -5.969 l -9.883,22.278 V 125.359 H 862.91 l -2.597,6.34 h -14.141 l -2.649,-6.34 h -7.371 l 12.168,28.426 h 10.086 l 11.555,-26.91 v 26.91 h 11.094 l 8.886,-19.289 8.172,19.289 h 11.313 v -28.426 z m 109.764,12.27 -4.72,11.324 -4.67,-11.324 z m -58.885,4.504 c -0.942,-0.563 -2.043,-0.582 -3.364,-0.582 h -8.25 v 6.32 h 8.372 c 1.179,0 2.402,-0.062 3.21,-0.523 0.887,-0.41 1.438,-1.293 1.438,-2.508 0,-1.242 -0.52,-2.242 -1.406,-2.707 z m -102.446,-4.504 -4.656,11.324 -4.617,-11.324"
         style="fill:#ffffff;fill-opacity:1;fill-rule:nonzero;stroke:none"
         id="path122" />
      <path
         d="m 967.754,95.4922 c 0,-7.8984 -5.891,-9.5313 -11.816,-9.5313 h -8.477 v -9.5351 h -13.215 l -8.367,9.414 -8.691,-9.414 h -26.915 v 28.4332 h 27.332 l 8.364,-9.316 8.633,9.316 h 21.707 c 5.402,0 11.445,-1.496 11.445,-9.3668 z M 913.738,82.3516 h -16.695 v 5.6601 h 14.922 v 5.7969 h -14.922 v 5.1719 h 17.027 l 7.446,-8.2891 z m 26.946,-3.3399 -10.442,11.5821 10.442,11.2112 z m 15.554,12.7266 h -8.777 v 7.2422 h 8.848 c 2.461,0 4.16,-1.0039 4.16,-3.4883 0,-2.457 -1.621,-3.7539 -4.231,-3.7539 z m 45.832,13.1207 h 22.68 v -5.8785 h -15.91 v -5.1719 h 15.52 v -5.7969 h -15.52 v -5.6601 l 15.91,-0.0235 v -5.9023 h -22.68 z m -8.574,-15.2223 c 1.504,-0.5547 2.742,-1.5547 3.32,-2.3867 0.965,-1.3867 1.106,-2.6797 1.145,-5.1836 v -5.6406 h -6.848 v 3.5586 c 0,1.7109 0.164,4.25 -1.086,5.5625 -1.004,1.0195 -2.507,1.2656 -4.988,1.2656 h -7.266 V 76.4258 h -6.816 v 28.4332 h 15.691 c 3.43,0 5.95,-0.152 8.165,-1.343 2.152,-1.289 3.488,-3.067 3.488,-6.3129 0,-4.539 -3.02,-6.8515 -4.805,-7.5664 z m -4.101,3.543 c -0.918,-0.543 -2.04,-0.5859 -3.372,-0.5859 h -8.25 v 6.3867 h 8.379 c 1.203,0 2.422,-0.0274 3.243,-0.5157 0.871,-0.4609 1.406,-1.3398 1.406,-2.5585 0,-1.2149 -0.535,-2.1954 -1.406,-2.7266 z m 61.305,-1.7578 c 1.32,-1.3672 2.02,-3.0977 2.02,-6.0274 0,-6.1132 -3.81,-8.9687 -10.66,-8.9687 h -13.23 v 6.0976 h 13.18 c 1.29,0 2.19,0.168 2.77,0.7032 0.46,0.4453 0.8,1.0859 0.8,1.8554 0,0.8321 -0.36,1.4844 -0.82,1.8789 -0.52,0.4375 -1.24,0.6329 -2.44,0.6329 -6.34,0.2148 -14.29,-0.1954 -14.29,8.8007 0,4.1215 2.58,8.4645 9.7,8.4645 h 13.63 v -6.0504 h -12.46 c -1.24,0 -2.05,-0.0508 -2.74,-0.5117 -0.73,-0.4649 -1.01,-1.1485 -1.01,-2.0508 0,-1.0703 0.63,-1.7969 1.49,-2.1172 0.71,-0.2461 1.49,-0.3242 2.64,-0.3242 l 3.67,-0.0938 c 3.68,-0.0937 6.21,-0.7343 7.75,-2.289 z m 27.09,-11.3555 c -1.64,-2.4141 -4.85,-3.6406 -9.21,-3.6406 h -13.12 v 6.0976 h 13.08 c 1.28,0 2.18,0.168 2.74,0.7032 0.47,0.4453 0.81,1.0859 0.81,1.8554 0,0.8321 -0.34,1.4844 -0.84,1.8789 -0.49,0.4375 -1.2,0.6329 -2.4,0.6329 -6.38,0.2148 -14.33,-0.1954 -14.33,8.8007 0,4.1215 2.61,8.4645 9.75,8.4645 h 13.52 v 5.653 h -12.57 c -3.79,0 -6.55,-0.903 -8.49,-2.321 v 2.321 h -18.6 c -2.98,0 -6.47,-0.731 -8.13,-2.321 v 2.321 h -33.203 v -2.321 c -2.649,1.911 -7.102,2.321 -9.16,2.321 h -21.914 v -2.321 c -2.09,2.028 -6.739,2.321 -9.578,2.321 h -24.512 l -5.617,-6.071 -5.246,6.071 H 884.141 V 70.8477 h 35.937 l 5.781,6.164 5.45,-6.164 22.148,-0.0235 v 9.3321 h 2.18 c 2.926,-0.0508 6.394,0.0781 9.461,1.3945 V 70.8477 h 18.269 v 10.332 h 0.879 c 1.125,0 1.234,-0.043 1.234,-1.1641 v -9.1679 h 55.51 c 3.52,0 7.2,0.8945 9.24,2.5351 v -2.5351 h 17.6 c 3.66,0 7.25,0.5156 9.96,1.8281 v 7.3906 z m 0,18.7422 h -12.37 c -1.24,0 -2.06,-0.043 -2.74,-0.5117 -0.73,-0.4649 -1.01,-1.1485 -1.01,-2.0508 0,-1.0703 0.62,-1.7969 1.49,-2.1172 0.72,-0.2422 1.49,-0.3203 2.61,-0.3203 l 3.68,-0.0977 c 3.72,-0.0937 6.2,-0.7343 7.73,-2.289 0.26,-0.2149 0.43,-0.4649 0.61,-0.7031"
         style="fill:#ffffff;fill-opacity:1;fill-rule:nonzero;stroke:none"
         id="path124" />
      <path
         d="m 1492.2,108.051 c 0,0 -101.21,-71.4104 -286.57,-103.39475 H 1492.2 V 108.051"
         style="fill:#f47216;fill-opacity:1;fill-rule:nonzero;stroke:none"
         id="path126" />
      <path
         d="m 1492.22,237.934 c 0,-2.653 0,-230.59416 0,-233.25822 -2.68,0 -365.05,-0.00781 -367.75,-0.00781 0,2.66016 0,230.59403 0,233.24603 2.68,0 365.05,0.02 367.75,0.02 z m 1.34,2.707 -371.79,-0.028 0.01,-238.64425 373.13,0.00391 V 240.641 h -1.35"
         style="fill:#211c1d;fill-opacity:1;fill-rule:nonzero;stroke:none"
         id="path128" />
      <g
         id="g130">
        <g
           id="g132"
           clip-path="url(#clipPath136)">
          <path
             d="m 1317.19,180.055 c -15.21,0 -27.55,-11.875 -27.55,-26.539 0,-15.586 11.81,-27.239 27.55,-27.239 15.34,0 27.47,11.805 27.47,26.93 0,15.039 -12.05,26.848 -27.47,26.848"
             style="fill:url(#radialGradient144);fill-opacity:1;fill-rule:nonzero;stroke:none"
             id="path146" />
        </g>
      </g>
      <path
         d="m 1172.6,140.297 c -3.19,-2.871 -7.28,-4.109 -13.79,-4.109 h -2.72 v 34.152 h 2.72 c 6.51,0 10.45,-1.16 13.79,-4.18 3.48,-3.094 5.56,-7.894 5.56,-12.844 0,-4.968 -2.08,-9.933 -5.56,-13.019 z m -11.77,38.789 h -14.81 v -51.645 h 14.73 c 7.81,0 13.47,1.856 18.42,5.961 5.89,4.879 9.37,12.231 9.37,19.84 0,15.242 -11.38,25.844 -27.71,25.844"
         style="fill:#131a1f;fill-opacity:1;fill-rule:nonzero;stroke:none"
         id="path148" />
      <path
         d="m 1193.19,127.441 h 10.07 v 51.645 h -10.07 v -51.645"
         style="fill:#131a1f;fill-opacity:1;fill-rule:nonzero;stroke:none"
         id="path150" />
      <path
         d="m 1227.89,159.277 c -6.04,2.243 -7.82,3.719 -7.82,6.493 0,3.257 3.16,5.734 7.51,5.734 3.02,0 5.5,-1.234 8.13,-4.172 l 5.27,6.883 c -4.34,3.801 -9.52,5.734 -15.19,5.734 -9.12,0 -16.1,-6.351 -16.1,-14.785 0,-7.133 3.25,-10.766 12.7,-14.184 3.95,-1.386 5.96,-2.312 6.98,-2.945 2.01,-1.316 3.01,-3.168 3.01,-5.336 0,-4.183 -3.33,-7.281 -7.83,-7.281 -4.79,0 -8.66,2.398 -10.99,6.891 l -6.5,-6.278 c 4.64,-6.808 10.22,-9.836 17.89,-9.836 10.45,0 17.81,6.977 17.81,16.965 0,8.211 -3.4,11.926 -14.87,16.117"
         style="fill:#131a1f;fill-opacity:1;fill-rule:nonzero;stroke:none"
         id="path152" />
      <path
         d="m 1245.93,153.242 c 0,-15.195 11.93,-26.965 27.26,-26.965 4.34,0 8.06,0.856 12.64,3.02 v 11.851 c -4.04,-4.031 -7.6,-5.652 -12.17,-5.652 -10.14,0 -17.35,7.359 -17.35,17.82 0,9.907 7.43,17.727 16.88,17.727 4.81,0 8.45,-1.703 12.64,-5.805 v 11.852 c -4.41,2.242 -8.07,3.164 -12.4,3.164 -15.26,0 -27.5,-12.008 -27.5,-27.012"
         style="fill:#131a1f;fill-opacity:1;fill-rule:nonzero;stroke:none"
         id="path154" />
      <path
         d="m 1367.45,144.395 -13.79,34.691 h -10.99 l 21.91,-52.965 h 5.43 l 22.3,52.965 h -10.91 l -13.95,-34.691"
         style="fill:#131a1f;fill-opacity:1;fill-rule:nonzero;stroke:none"
         id="path156" />
      <path
         d="m 1396.88,127.441 h 28.58 v 8.747 h -18.5 v 13.949 h 17.8 v 8.746 h -17.8 v 11.457 h 18.5 v 8.746 h -28.58 v -51.645"
         style="fill:#131a1f;fill-opacity:1;fill-rule:nonzero;stroke:none"
         id="path158" />
      <path
         d="m 1445.13,155.316 h -2.93 v 15.649 h 3.08 c 6.29,0 9.71,-2.641 9.71,-7.664 0,-5.188 -3.42,-7.985 -9.86,-7.985 z m 20.21,8.532 c 0,9.672 -6.66,15.238 -18.28,15.238 h -14.94 v -51.645 h 10.08 v 20.758 h 1.31 l 13.94,-20.758 h 12.38 l -16.27,21.758 c 7.6,1.551 11.78,6.742 11.78,14.649"
         style="fill:#131a1f;fill-opacity:1;fill-rule:nonzero;stroke:none"
         id="path160" />
      <path
         d="m 1470.56,174.625 h -0.22 v 1.18 h 0.22 c 0.52,0 0.8,-0.196 0.8,-0.582 0,-0.399 -0.28,-0.598 -0.8,-0.598 z m 1.89,0.617 c 0,0.906 -0.6,1.395 -1.72,1.395 h -1.46 v -4.547 h 1.07 v 1.765 l 1.27,-1.765 h 1.35 l -1.5,1.879 c 0.64,0.168 0.99,0.64 0.99,1.273"
         style="fill:#211c1d;fill-opacity:1;fill-rule:nonzero;stroke:none"
         id="path162" />
      <path
         d="m 1470.95,171.113 c -1.76,0 -3.19,1.453 -3.19,3.25 0,1.817 1.41,3.262 3.19,3.262 1.72,0 3.12,-1.473 3.12,-3.262 0,-1.785 -1.4,-3.25 -3.12,-3.25 z m 0,7.235 c -2.21,0 -3.97,-1.77 -3.97,-3.973 0,-2.203 1.78,-3.977 3.97,-3.977 2.17,0 3.92,1.79 3.92,3.977 0,2.176 -1.75,3.973 -3.92,3.973"
         style="fill:#211c1d;fill-opacity:1;fill-rule:nonzero;stroke:none"
         id="path164" />
      <path
         d="m 1236.3,113.867 13.48,-14.117 v 13.379 h 1.93 V 95.0781 l -13.48,14.0859 V 95.8477 h -1.93 v 18.0193"
         style="fill:#211c1d;fill-opacity:1;fill-rule:nonzero;stroke:none"
         id="path166" />
      <path
         d="m 1236.48,113.418 c 0.6,-0.617 13.49,-14.1211 13.49,-14.1211 0,0 0,13.3051 0,13.6641 0.25,0 1.29,0 1.55,0 0,-0.356 0,-16.5938 0,-17.4454 -0.59,0.625 -13.46,14.1014 -13.46,14.1014 0,0 0,-13.2342 0,-13.5857 -0.28,0 -1.31,0 -1.58,0 0,0.3476 0,16.5427 0,17.3867 z m -0.36,0.449 V 95.668 h 2.29 c 0,0 0,12.211 0,13.047 0.58,-0.613 13.47,-14.0861 13.47,-14.0861 v 18.6801 h -2.28 c 0,0 0,-12.27 0,-13.114 -0.6,0.629 -13.48,14.125 -13.48,14.125 v -0.453"
         style="fill:#211c1d;fill-opacity:1;fill-rule:nonzero;stroke:none"
         id="path168" />
      <path
         d="m 1261.04,113.129 h 8.95 v -1.781 h -7.03 v -5.141 h 6.83 v -1.785 h -6.83 v -6.7814 h 7.03 v -1.7929 h -8.95 v 17.2813"
         style="fill:#211c1d;fill-opacity:1;fill-rule:nonzero;stroke:none"
         id="path170" />
      <path
         d="m 1269.81,112.961 c 0,-0.262 0,-1.18 0,-1.434 -0.35,0 -7.03,0 -7.03,0 v -5.496 c 0,0 6.49,0 6.82,0 0,-0.254 0,-1.164 0,-1.426 -0.33,0 -6.82,0 -6.82,0 v -7.1441 c 0,0 6.68,0 7.03,0 0,-0.2578 0,-1.1718 0,-1.4296 -0.34,0 -8.26,0 -8.59,0 0,0.3476 0,16.5707 0,16.9297 0.33,0 8.25,0 8.59,0 z m 0.18,0.348 h -9.14 V 95.668 h 9.33 v 2.1523 c 0,0 -6.69,0 -7.04,0 0,0.332 0,6.0897 0,6.4257 0.35,0 6.83,0 6.83,0 v 2.137 c 0,0 -6.48,0 -6.83,0 0,0.336 0,4.457 0,4.769 0.35,0 7.04,0 7.04,0 v 2.157 h -0.19"
         style="fill:#211c1d;fill-opacity:1;fill-rule:nonzero;stroke:none"
         id="path172" />
      <path
         d="m 1283.58,95.8477 h -1.92 v 15.5003 h -4.17 v 1.781 h 10.31 v -1.781 h -4.22 V 95.8477"
         style="fill:#211c1d;fill-opacity:1;fill-rule:nonzero;stroke:none"
         id="path174" />
      <path
         d="m 1287.63,112.961 c 0,-0.262 0,-1.18 0,-1.434 -0.34,0 -4.22,0 -4.22,0 0,0 0,-15.1442 0,-15.4957 -0.28,0 -1.3,0 -1.56,0 0,0.3515 0,15.4957 0,15.4957 0,0 -3.85,0 -4.17,0 0,0.254 0,1.172 0,1.434 0.32,0 9.61,0 9.95,0 z m 0.17,0.348 h -10.51 v -2.157 c 0,0 3.86,0 4.18,0 0,-0.343 0,-15.484 0,-15.484 h 2.29 c 0,0 0,15.141 0,15.484 0.33,0 4.22,0 4.22,0 v 2.157 h -0.18"
         style="fill:#211c1d;fill-opacity:1;fill-rule:nonzero;stroke:none"
         id="path176" />
      <path
         d="m 1300.68,100.18 5.6,13.851 5.59,-13.851 4.53,12.949 h 2.1 l -6.63,-18.1681 -5.59,13.9221 -5.6,-13.9221 -6.61,18.1681 h 2.07 l 4.54,-12.949"
         style="fill:#211c1d;fill-opacity:1;fill-rule:nonzero;stroke:none"
         id="path178" />
      <path
         d="m 1300.85,100.117 c 0,0 5.12,12.656 5.43,13.422 0.31,-0.766 5.6,-13.8671 5.6,-13.8671 0,0 4.57,13.0471 4.65,13.2891 0.2,0 1.33,0 1.7,0 -0.15,-0.461 -6.07,-16.668 -6.37,-17.4962 -0.33,0.8204 -5.58,13.8902 -5.58,13.8902 0,0 -5.26,-13.0698 -5.59,-13.8902 -0.3,0.8282 -6.2,17.0352 -6.37,17.4962 0.36,0 1.5,0 1.7,0 0.08,-0.242 4.65,-13.2891 4.65,-13.2891 z m 5.26,13.981 c 0,0 -5.08,-12.575 -5.42,-13.407 -0.29,0.84 -4.42,12.618 -4.42,12.618 h -2.47 l 6.88,-18.8676 c 0,0 5.29,13.1566 5.6,13.9456 0.31,-0.789 5.59,-13.9456 5.59,-13.9456 l 6.88,18.8676 h -2.47 c 0,0 -4.13,-11.778 -4.42,-12.618 -0.35,0.832 -5.58,13.817 -5.58,13.817 l -0.17,-0.41"
         style="fill:#211c1d;fill-opacity:1;fill-rule:nonzero;stroke:none"
         id="path180" />
      <path
         d="m 1327.29,104.492 c 0,-3.89 3.17,-7.1443 7.09,-7.1443 3.91,0 7.08,3.2543 7.08,7.1443 0,3.922 -3.13,7.156 -7.08,7.156 -3.96,0 -7.09,-3.234 -7.09,-7.156 z m 16.1,-0.019 c 0,-4.9691 -4.08,-8.9222 -9.01,-8.9222 -4.94,0 -9.01,3.9531 -9.01,8.9222 0,4.945 4.07,8.953 9.01,8.953 4.93,0 9.01,-4.008 9.01,-8.953"
         style="fill:#211c1d;fill-opacity:1;fill-rule:nonzero;stroke:none"
         id="path182" />
      <path
         d="m 1325.54,104.473 c 0,4.843 3.96,8.773 8.84,8.773 4.85,0 8.83,-3.93 8.83,-8.773 0,-4.8207 -3.98,-8.7425 -8.83,-8.7425 -4.88,0 -8.84,3.9218 -8.84,8.7425 z m -0.35,0 c 0,-5.016 4.12,-9.098 9.19,-9.098 5.06,0 9.18,4.082 9.18,9.098 0,5.043 -4.12,9.136 -9.18,9.136 -5.07,0 -9.19,-4.093 -9.19,-9.136"
         style="fill:#211c1d;fill-opacity:1;fill-rule:nonzero;stroke:none"
         id="path184" />
      <path
         d="m 1327.47,104.492 c 0,3.844 3.09,6.973 6.91,6.973 3.81,0 6.88,-3.129 6.88,-6.973 0,-3.84 -3.07,-6.9725 -6.88,-6.9725 -3.82,0 -6.91,3.1325 -6.91,6.9725 z m -0.37,0 c 0,-4.054 3.28,-7.3279 7.28,-7.3279 3.99,0 7.25,3.2739 7.25,7.3279 0,4.043 -3.26,7.328 -7.25,7.328 -4,0 -7.28,-3.285 -7.28,-7.328"
         style="fill:#211c1d;fill-opacity:1;fill-rule:nonzero;stroke:none"
         id="path186" />
      <path
         d="m 1353.64,105.137 h 0.61 c 2.17,0 4.37,0.406 4.37,3.09 0,2.836 -2.09,3.121 -4.39,3.121 h -0.59 z m 0,-9.2893 h -1.91 v 17.2813 h 2.5 c 3.28,0 6.31,-0.875 6.31,-4.766 0,-2.656 -1.66,-4.535 -4.32,-4.765 l 5.49,-7.7503 h -2.36 l -5.22,7.5933 h -0.49 v -7.5933"
         style="fill:#211c1d;fill-opacity:1;fill-rule:nonzero;stroke:none"
         id="path188" />
      <path
         d="m 1354.23,112.961 c 4.18,0 6.13,-1.461 6.13,-4.598 0,-2.566 -1.62,-4.375 -4.16,-4.59 l -0.31,-0.027 c 0,0 5.12,-7.1874 5.49,-7.7147 -0.51,0 -2.01,0 -2.03,0 h 0.02 c 0,0.1289 -5.08,7.5117 -5.08,7.5117 l -0.65,0.074 h -0.17 c 0,0 0,-7.2381 0,-7.5857 -0.26,0 -1.31,0 -1.57,0 0,0.3476 0,16.5707 0,16.9297 0.32,0 2.33,0 2.33,0 z m -2.5,0.348 h -0.18 V 95.668 h 2.29 c 0,0 0,7.246 0,7.594 0.13,0 0.29,0 0.29,0 v 0 c 0,-0.133 5.08,-7.5081 5.08,-7.5081 l 2.5,-0.0859 h 0.37 c 0,0 -5.29,7.422 -5.57,7.824 2.56,0.352 4.22,2.215 4.22,4.871 0,3.336 -2.13,4.946 -6.5,4.946 h -2.5"
         style="fill:#211c1d;fill-opacity:1;fill-rule:nonzero;stroke:none"
         id="path190" />
      <path
         d="m 1354.23,111.152 c 2.23,0 4.22,-0.211 4.22,-2.925 0,-2.563 -2.13,-2.907 -4.2,-2.907 0,0 -0.24,0 -0.41,0 0,0.328 0,5.508 0,5.832 0.17,0 0.39,0 0.39,0 z m -0.59,0.375 h -0.17 v -6.57 h 0.78 c 2.13,0 4.55,0.375 4.55,3.27 0,3.046 -2.36,3.3 -4.57,3.3 h -0.59"
         style="fill:#211c1d;fill-opacity:1;fill-rule:nonzero;stroke:none"
         id="path192" />
      <path
         d="m 1379.17,113.129 h 2.58 l -8.11,-8.051 8.38,-9.2303 h -2.65 l -7.09,7.9293 -0.47,-0.468 v -7.4613 h -1.94 v 17.2813 h 1.94 v -7.399 l 7.36,7.399"
         style="fill:#211c1d;fill-opacity:1;fill-rule:nonzero;stroke:none"
         id="path194" />
      <path
         d="m 1381.32,112.961 c -0.59,-0.582 -7.93,-7.875 -7.93,-7.875 0,0 7.71,-8.4883 8.22,-9.0547 -0.58,0 -2.24,0 -2.24,0 v 0 c 0,0.0898 -6.96,7.8707 -6.96,7.8707 l -0.12,0.145 -0.62,-0.613 c 0,0 -0.04,-7.0551 -0.04,-7.4027 -0.27,0 -1.31,0 -1.56,0 0,0.3476 0,16.5707 0,16.9297 0.25,0 1.29,0 1.56,0 0,-0.356 0,-7.668 0,-7.668 0,0 7.5,7.559 7.6,7.668 0.12,0 1.5,0 2.09,0 z m 0.43,0.348 h -2.66 c 0,0 -6.54,-6.571 -7.11,-7.149 0,0.778 0,7.149 0,7.149 h -2.28 V 95.668 h 2.28 c 0,0 0,7.578 0,7.613 0.02,-0.011 0.18,0.133 0.3,0.239 0.23,-0.258 6.95,-7.7934 6.95,-7.7934 l 2.79,-0.0586 h 0.41 c 0,0 -8.32,9.168 -8.55,9.406 0.25,0.246 8.3,8.235 8.3,8.235 h -0.43"
         style="fill:#211c1d;fill-opacity:1;fill-rule:nonzero;stroke:none"
         id="path196" />
      <path
         d="m 1900.84,3.80469 h -365 V 238.805 h 365 V 3.80469"
         style="fill:#d1d2d1;fill-opacity:1;fill-rule:nonzero;stroke:none"
         id="path198" />
      <path
         d="m 1902.22,237.934 c 0,-2.653 0,-230.59416 0,-233.25822 -2.68,0 -365.06,-0.00781 -367.75,-0.00781 0,2.66016 -0.01,230.59403 -0.01,233.24603 2.69,0 365.06,0.02 367.76,0.02 z m 1.34,2.707 -371.79,-0.028 0.01,-238.64425 373.13,0.00391 V 240.641 h -1.35"
         style="fill:#211c1d;fill-opacity:1;fill-rule:nonzero;stroke:none"
         id="path200" />
      <path
         d="m 1591.51,88.8555 c 2.16,-0.3594 5.04,-0.4766 8.75,-0.4766 10.8,0 20.76,3.957 20.76,15.7111 0,10.918 -9.48,15.598 -20.87,15.598 h -8.64 z m 0,38.6245 h 9.48 c 10.91,0 17.39,5.879 17.39,13.672 0,9.356 -7.08,13.192 -17.63,13.192 -4.8,0 -7.56,-0.36 -9.24,-0.723 z m -10.44,33.106 c 4.56,1.074 11.88,1.797 19.08,1.797 10.44,0 17.14,-1.797 22.07,-5.879 4.2,-3.117 6.83,-7.922 6.83,-14.277 0,-7.911 -5.27,-14.747 -13.67,-17.747 v -0.359 c 7.68,-1.797 16.67,-8.156 16.67,-20.148 0,-6.9613 -2.76,-12.3519 -6.95,-16.1917 -5.52,-5.1524 -14.64,-7.5586 -27.83,-7.5586 -7.2,0 -12.71,0.4804 -16.2,0.957 v 79.4063"
         style="fill:#211c1d;fill-opacity:1;fill-rule:nonzero;stroke:none"
         id="path202" />
      <path
         d="m 1685.81,114.531 -8.03,23.262 c -1.8,5.273 -2.99,10.078 -4.2,14.754 h -0.24 c -1.2,-4.676 -2.39,-9.715 -4.07,-14.637 l -7.92,-23.379 z m -26.62,-8.164 -8.4,-25.4217 H 1640 l 27.59,80.8317 h 12.47 l 27.59,-80.8317 h -11.16 l -8.64,25.4217 h -28.66"
         style="fill:#211c1d;fill-opacity:1;fill-rule:nonzero;stroke:none"
         id="path204" />
      <path
         d="m 1719.55,80.9453 v 80.8317 h 11.51 l 25.8,-40.898 c 5.87,-9.473 10.67,-17.988 14.39,-26.2618 l 0.35,0.1172 c -0.96,10.7926 -1.19,20.6246 -1.19,33.2266 v 33.816 h 9.83 V 80.9453 h -10.55 l -25.67,41.0157 c -5.63,8.996 -11.03,18.234 -14.99,26.984 l -0.36,-0.117 c 0.6,-10.195 0.71,-19.914 0.71,-33.34 V 80.9453 h -9.83"
         style="fill:#211c1d;fill-opacity:1;fill-rule:nonzero;stroke:none"
         id="path206" />
      <path
         d="m 1798.52,161.777 h 10.44 v -38.976 h 0.36 c 2.15,3.117 4.31,5.996 6.35,8.633 l 24.71,30.343 h 12.95 l -29.27,-34.297 31.55,-46.5347 h -12.36 l -26.5,39.6997 -7.79,-8.879 V 80.9453 h -10.44 v 80.8317"
         style="fill:#211c1d;fill-opacity:1;fill-rule:nonzero;stroke:none"
         id="path208" />
      <path
         d="m 2287.1,145.828 v 9.942 h -3.69 v 1.335 h 8.89 v -1.335 h -3.7 v -9.942 h -1.5"
         style="fill:#213563;fill-opacity:1;fill-rule:nonzero;stroke:none"
         id="path210" />
      <path
         d="m 2293.8,145.828 v 11.277 h 2.22 l 2.68,-7.98 c 0.24,-0.738 0.41,-1.297 0.51,-1.656 0.15,0.41 0.36,1.011 0.61,1.804 l 2.74,7.832 h 1.99 v -11.277 h -1.42 v 9.43 l -3.32,-9.43 h -1.33 l -3.26,9.543 v -9.543 h -1.42"
         style="fill:#213563;fill-opacity:1;fill-rule:nonzero;stroke:none"
         id="path212" />
      <path
         d="m 2200.42,148.789 c -1.15,2.234 -2.88,4.07 -5.12,5.457 -2.27,1.426 -4.97,2.402 -8.07,2.981 -3.12,0.566 -6.77,0.859 -10.96,0.859 h -19.42 c -2.01,0 -4,-1.582 -4.44,-3.535 l -13.13,-56.9065 c -0.47,-1.9531 0.81,-3.5429 2.79,-3.5429 h 9.33 c 2,0 3.99,1.5898 4.46,3.5429 l 3.18,13.7895 c 0.46,1.933 2.44,3.535 4.45,3.535 h 2.66 c 11.38,0 20.22,2.336 26.56,6.992 6.31,4.68 9.49,10.812 9.49,18.418 0,3.359 -0.59,6.152 -1.78,8.41 m -20.08,-18.605 c -2.8,-2.039 -6.7,-3.075 -11.75,-3.075 h -2.29 c -2.01,0 -3.27,1.602 -2.82,3.555 l 2.8,12.078 c 0.44,1.934 2.44,3.528 4.43,3.528 h 3.06 c 3.56,0 6.24,-0.598 8.08,-1.809 1.79,-1.191 2.69,-3.035 2.69,-5.527 0,-3.789 -1.41,-6.7 -4.2,-8.75"
         style="fill:#3a63a0;fill-opacity:1;fill-rule:nonzero;stroke:none"
         id="path214" />
      <path
         d="m 2225.94,94.1016 h 11.69 c 1.99,0 3.99,1.5898 4.45,3.5429 l 6.77,29.2965 c 0.17,0.696 0.31,1.485 0.42,2.414 0.09,0.918 0.14,1.668 0.14,2.227 0,4.16 -1.77,7.227 -5.29,9.188 -3.55,1.992 -9.07,2.968 -16.61,2.968 -3.75,0 -7.5,-0.281 -11.27,-0.859 -3.78,-0.574 -6.55,-1.094 -8.36,-1.563 l -1.57,-7.988 c -0.38,-1.949 -0.06,-3.562 0.72,-3.562 1.51,0.566 3.82,1.269 6.88,2.136 3.08,0.871 5.88,1.301 8.4,1.301 3.75,0 6.56,-0.402 8.43,-1.199 1.87,-0.813 2.82,-2.211 2.82,-4.203 0,-0.477 -0.04,-0.918 -0.13,-1.317 -0.1,-0.39 -0.17,-0.683 -0.21,-0.851 -5.31,-0.313 -10.28,-0.797 -14.86,-1.465 -4.56,-0.652 -8.5,-1.727 -11.82,-3.223 -3.52,-1.582 -6.18,-3.691 -7.99,-6.347 -1.79,-2.657 -2.69,-5.879 -2.69,-9.696 0,-3.613 1.27,-6.5543 3.81,-8.8004 2.53,-2.2539 5.79,-3.3789 9.78,-3.3789 2.49,0 4.44,0.1757 5.84,0.5312 1.39,0.3477 2.9,0.8555 4.5,1.5313 1.18,0.5156 2.45,1.2304 3.82,2.1367 1.37,0.8984 2.54,1.6719 3.52,2.3164 l -1.19,-5.1367 m 2.92,12.5664 c -1.52,-1.082 -3.15,-1.98 -4.88,-2.684 -1.7,-0.703 -3.34,-1.066 -4.84,-1.066 -2.32,0 -4.09,0.344 -5.29,1.027 -1.21,0.664 -1.82,1.817 -1.82,3.477 0,1.883 0.45,3.398 1.38,4.551 0.9,1.132 2.23,2.019 3.95,2.644 1.68,0.606 3.73,1.067 6.13,1.379 2.39,0.301 4.95,0.574 7.7,0.82 l -2.33,-10.148"
         style="fill:#3a63a0;fill-opacity:1;fill-rule:nonzero;stroke:none"
         id="path216" />
      <path
         d="m 2279.15,157.578 -13.29,-59.9413 c -0.44,-1.9531 -2.44,-3.5469 -4.44,-3.5469 h -8.31 c -2,0 -3.28,1.5938 -2.82,3.5469 l 12.46,56.4063 c 0.46,1.941 2.46,3.535 4.46,3.535 h 11.94"
         style="fill:#3a63a0;fill-opacity:1;fill-rule:nonzero;stroke:none"
         id="path218" />
      <path
         d="m 2036.28,148.68 c -1.16,2.246 -2.87,4.074 -5.13,5.468 -2.28,1.407 -4.95,2.395 -8.06,2.981 -3.13,0.566 -6.77,0.848 -10.95,0.848 h -19.43 c -2.02,0 -4,-1.582 -4.46,-3.536 l -13.13,-56.9019 c -0.45,-1.9532 0.81,-3.5469 2.83,-3.5469 h 9.32 c 1.99,0 3.99,1.5937 4.44,3.5351 l 3.18,13.8007 c 0.46,1.942 2.45,3.535 4.46,3.535 h 2.66 c 11.38,0 20.23,2.325 26.55,6.992 6.33,4.676 9.5,10.801 9.5,18.426 0,3.352 -0.6,6.153 -1.78,8.399 m -20.1,-18.594 c -2.79,-2.051 -6.69,-3.082 -11.72,-3.082 h -2.31 c -2,0 -3.28,1.598 -2.83,3.551 l 2.8,12.082 c 0.46,1.953 2.46,3.543 4.46,3.543 h 3.04 c 3.55,0 6.25,-0.614 8.06,-1.825 1.81,-1.191 2.72,-3.039 2.72,-5.527 0,-3.781 -1.41,-6.699 -4.22,-8.742"
         style="fill:#213563;fill-opacity:1;fill-rule:nonzero;stroke:none"
         id="path220" />
      <path
         d="m 2061.8,93.9922 h 11.69 c 2,0 3.99,1.5937 4.44,3.5351 l 6.78,29.3087 c 0.18,0.691 0.32,1.492 0.39,2.422 0.11,0.906 0.16,1.66 0.16,2.207 0,4.168 -1.76,7.234 -5.3,9.207 -3.52,1.984 -9.06,2.969 -16.61,2.969 -3.75,0 -7.5,-0.282 -11.25,-0.868 -3.79,-0.578 -6.58,-1.105 -8.36,-1.562 l -1.58,-7.981 c -0.39,-1.96 -0.05,-3.574 0.72,-3.574 1.53,0.567 3.82,1.289 6.89,2.149 3.08,0.851 5.86,1.289 8.4,1.289 3.72,0 6.55,-0.399 8.43,-1.199 1.88,-0.809 2.83,-2.207 2.83,-4.2 0,-0.48 -0.07,-0.918 -0.14,-1.308 -0.12,-0.403 -0.19,-0.684 -0.2,-0.86 -5.34,-0.312 -10.28,-0.793 -14.87,-1.457 -4.57,-0.664 -8.51,-1.746 -11.82,-3.23 -3.52,-1.594 -6.18,-3.703 -7.99,-6.348 -1.79,-2.656 -2.7,-5.89 -2.7,-9.699 0,-3.613 1.26,-6.5508 3.81,-8.7969 2.53,-2.2461 5.8,-3.3789 9.78,-3.3789 2.5,0 4.44,0.1836 5.84,0.5273 1.42,0.3594 2.91,0.8594 4.49,1.5313 1.19,0.5195 2.47,1.2305 3.84,2.1406 1.36,0.9063 2.55,1.6797 3.5,2.3242 l -1.17,-5.1484 m 2.9,12.5778 c -1.52,-1.082 -3.14,-1.992 -4.87,-2.691 -1.72,-0.707 -3.33,-1.059 -4.84,-1.059 -2.31,0 -4.08,0.332 -5.29,1.008 -1.2,0.664 -1.81,1.836 -1.81,3.508 0,1.863 0.44,3.387 1.35,4.527 0.93,1.133 2.25,2.016 3.98,2.657 1.7,0.585 3.72,1.054 6.12,1.378 2.4,0.301 4.98,0.575 7.69,0.801 l -2.33,-10.129"
         style="fill:#213563;fill-opacity:1;fill-rule:nonzero;stroke:none"
         id="path222" />
      <path
         d="m 2132.6,143.711 c -1.99,0 -4.63,-1.613 -5.83,-3.547 l -16.46,-28.191 -4.51,28.144 c -0.45,1.953 -2.44,3.555 -4.45,3.555 h -8.3 c -2.01,0 -3.28,-1.602 -2.83,-3.555 l 7.2,-46.4959 c 0.14,-1.0039 0.28,-1.8555 0.39,-2.5664 l -8.95,-14.9805 c -1.19,-1.9531 -0.55,-3.5469 1.43,-3.5469 h 9.65 c 2,0 4.61,1.5938 5.8,3.5469 l 40.13,67.6368 h -13.27"
         style="fill:#213563;fill-opacity:1;fill-rule:nonzero;stroke:none"
         id="path224" />
    </g>
  </g>
</svg>
